<?xml version="1.0" standalone="no"?>
<!DOCTYPE svg PUBLIC "-//W3C//DTD SVG 20010904//EN"
 "http://www.w3.org/TR/2001/REC-SVG-20010904/DTD/svg10.dtd">
<svg version="1.0" xmlns="http://www.w3.org/2000/svg"
 width="640.000000pt" height="1280.000000pt" viewBox="0 0 640.000000 1280.000000"
 preserveAspectRatio="xMidYMid meet">
<metadata>
Created by potrace 1.15, written by Peter Selinger 2001-2017
</metadata>
<g transform="translate(0.000000,1280.000000) scale(0.100000,-0.100000)"
fill="#000000" stroke="none">
<path d="M3119 12723 c-356 -296 -779 -782 -1096 -1258 -269 -404 -520 -896
-688 -1345 -217 -579 -350 -1169 -411 -1820 -21 -230 -30 -826 -15 -1075 66
-1129 358 -2291 871 -3465 39 -91 74 -173 77 -183 5 -16 63 -17 1004 -19 550
-2 1149 -3 1331 -3 l333 0 72 160 c93 206 295 712 371 930 504 1441 667 2806
487 4075 -183 1280 -713 2462 -1539 3425 -236 276 -632 655 -683 655 -13 0
-59 -31 -114 -77z m296 -285 c671 -680 1180 -1421 1387 -2021 24 -69 40 -128
38 -131 -3 -3 -514 -1 -1135 4 -622 5 -1350 10 -1619 10 l-488 0 7 27 c12 50
165 386 249 548 212 409 459 783 737 1116 179 214 598 619 641 619 7 0 89 -78
183 -172z m22 -3143 c457 -88 853 -455 987 -916 98 -341 28 -713 -198 -1044
-183 -268 -462 -453 -781 -516 -101 -20 -330 -18 -434 4 -274 59 -490 176
-692 377 -193 192 -301 390 -350 640 -18 95 -16 308 4 413 88 445 429 843 852
996 163 59 436 80 612 46z m-980 -4985 l533 0 0 -325 0 -325 -534 0 -533 0
-125 323 c-69 177 -123 326 -120 331 3 5 57 6 125 2 66 -3 360 -6 654 -6z
m2283 -6 c0 -3 -59 -150 -132 -325 l-132 -319 -533 0 -533 0 0 325 0 325 665
0 c366 0 665 -3 665 -6z"/>
<path d="M3410 12208 c245 -517 353 -887 353 -1213 1 -216 -41 -359 -133 -458
l-41 -45 513 -4 c282 -2 515 -2 517 -1 9 6 -221 453 -315 613 -263 450 -544
828 -831 1120 l-133 135 70 -147z"/>
<path d="M3089 8556 c-205 -57 -372 -259 -386 -466 -11 -148 37 -273 146 -380
261 -257 654 -198 816 122 44 89 59 163 53 270 -5 75 -11 97 -46 170 -66 136
-187 239 -331 282 -64 19 -186 20 -252 2z"/>
<path d="M860 5894 c-110 -23 -218 -84 -318 -179 -140 -133 -237 -296 -312
-523 -198 -604 -179 -1524 56 -2727 42 -212 113 -537 119 -544 3 -2 5 56 5
130 0 420 49 1139 106 1544 103 739 253 1139 469 1257 48 26 151 31 203 9 18
-7 34 -12 36 -10 5 5 -284 1042 -292 1050 -4 4 -36 0 -72 -7z"/>
<path d="M5475 5877 c-6 -18 -282 -988 -290 -1019 l-7 -27 49 15 c374 117 618
-537 713 -1911 18 -258 30 -591 30 -824 0 -123 2 -222 4 -220 7 7 89 368 130
569 270 1340 269 2323 -4 2907 -134 286 -351 477 -588 517 -21 4 -34 1 -37 -7z"/>
<path d="M1960 3376 c0 -100 93 -639 150 -872 78 -318 159 -504 310 -714 335
-467 466 -714 600 -1127 50 -153 142 -509 156 -598 3 -26 10 -43 14 -38 4 4
15 48 24 98 10 50 37 167 61 260 132 516 279 831 583 1253 242 335 302 437
376 636 100 266 181 671 202 1004 l7 112 -499 0 c-274 0 -833 3 -1241 7 l-743
6 0 -27z"/>
</g>
</svg>
