<?xml version="1.0" standalone="no"?>
<!DOCTYPE svg PUBLIC "-//W3C//DTD SVG 20010904//EN"
 "http://www.w3.org/TR/2001/REC-SVG-20010904/DTD/svg10.dtd">
<svg version="1.0" xmlns="http://www.w3.org/2000/svg"
 width="1280.000000pt" height="1214.000000pt" viewBox="0 0 1280.000000 1214.000000"
 preserveAspectRatio="xMidYMid meet">
<metadata>
Created by potrace 1.15, written by Peter Selinger 2001-2017
</metadata>
<g transform="translate(0.000000,1214.000000) scale(0.100000,-0.100000)"
fill="#000000" stroke="none">
<path d="M83 12121 c-30 -14 -48 -32 -63 -62 -20 -38 -21 -52 -16 -138 81
-1171 509 -2565 1174 -3826 511 -969 1120 -1835 1891 -2690 194 -216 785 -803
1001 -996 101 -90 201 -180 222 -199 l38 -35 15 -390 c89 -2302 82 -2161 100
-2195 24 -47 68 -74 306 -186 520 -246 2033 -940 2928 -1343 63 -29 133 -54
155 -57 52 -6 102 18 133 65 30 44 30 62 -6 538 -17 213 -44 575 -61 803 -17
228 -37 496 -45 595 l-13 180 25 60 c56 133 209 413 219 402 3 -3 34 -118 69
-256 137 -533 257 -890 381 -1131 60 -117 127 -211 223 -313 174 -185 238
-130 302 258 30 186 23 345 -24 560 -20 88 -39 183 -42 211 -28 209 186 97
1165 -611 444 -321 596 -415 670 -415 47 0 60 15 60 68 0 82 -36 167 -307 737
-131 273 -178 389 -194 478 -11 58 -10 69 5 91 38 58 136 29 481 -142 371
-184 504 -239 631 -262 63 -11 110 -2 126 23 15 24 7 74 -23 137 -53 112 -112
198 -310 446 -105 133 -143 199 -161 287 -41 196 125 368 480 496 121 44 434
131 470 131 52 0 49 20 -10 75 -139 129 -705 477 -1303 799 -201 109 -576 299
-674 342 l-73 32 113 74 c216 142 330 201 497 254 l102 32 943 -94 c518 -52
961 -93 984 -91 22 3 55 14 71 26 37 26 67 99 59 140 -11 53 -910 2160 -1289
3021 -151 342 -178 386 -248 403 -14 4 -592 32 -1285 63 l-1260 56 -245 242
c-515 509 -970 878 -1565 1271 -847 559 -1720 982 -2748 1331 -1234 420 -2603
674 -3862 719 -156 5 -174 4 -212 -14z"/>
</g>
</svg>
